# xmcd
#
# Track frame offsets:
#	150
#	16959
#	65143
#	79929
#	97230
#	129916
#	145513
#	178192
#	200931
#	227491
#	248018
#	262285
#
# Disc length: 3709 seconds
# Revision: 0
# Processed by: cddbd v1.5.2PL0 Copyright (c) Steve Scherf et al.
# Submitted via: dBpowerAMP V12.0
#
DISCID=b00e7b0c
DTITLE=Various Artist - The Blues Magazine: Kinda Blue
DYEAR=2016
DGENRE=Blues-Rock
TTITLE0=Gary Hoey - Boxcar Blues
TTITLE1=Walter Trout - Say Goodbye To The Blues
TTITLE2=The Apocalypse Blues Review - Whiskey In My Coffee
TTITLE3=Laurence Jones - Live It Up
TTITLE4=Gov't Mule - The Same Thing
TTITLE5=No Sinner - Get It Up
TTITLE6=Malaya Blue - Let's Reinvent Love
TTITLE7=Vargas Blues Band - Burning Shuffle
TTITLE8=Buck and Evans - Ain't No Moonlight
TTITLE9=Blues Pills - Lady In Gold
TTITLE10=Ben Hemming - Rambling Man
TTITLE11=Long John Laundry - True Love Sinner
EXTD=
EXTT0=
EXTT1=
EXTT2=
EXTT3=
EXTT4=
EXTT5=
EXTT6=
EXTT7=
EXTT8=
EXTT9=
EXTT10=
EXTT11=
PLAYORDER=
